<?xml version="1.0" encoding="utf-8"?>

<!-- Uploaded to: SVG Repo, www.svgrepo.com, Generator: SVG Repo Mixer Tools -->
<svg fill="#000000" height="800px" width="800px" version="1.1" id="Icons" xmlns="http://www.w3.org/2000/svg" xmlns:xlink="http://www.w3.org/1999/xlink" 
	 viewBox="0 0 32 32" xml:space="preserve">
<path d="M30,11v-1c0-1.7-1.3-3-3-3H5c-1.7,0-3,1.3-3,3v1H30z"/>
<path d="M2,13v10c0,1.7,1.3,3,3,3h22c1.7,0,3-1.3,3-3V13H2z M9,22H7c-0.6,0-1-0.4-1-1s0.4-1,1-1h2c0.6,0,1,0.4,1,1S9.6,22,9,22z
	 M12,19H7c-0.6,0-1-0.4-1-1s0.4-1,1-1h5c0.6,0,1,0.4,1,1S12.6,19,12,19z M23,22c-0.8,0-1.5-0.3-2-0.8c-0.5,0.5-1.2,0.8-2,0.8
	c-1.7,0-3-1.3-3-3s1.3-3,3-3c0.8,0,1.5,0.3,2,0.8c0.5-0.5,1.2-0.8,2-0.8c1.7,0,3,1.3,3,3S24.7,22,23,22z"/>
</svg>