<?xml version="1.0" encoding="UTF-8" standalone="no"?>
<!-- Uploaded to: SVG Repo, www.svgrepo.com, Generator: SVG Repo Mixer Tools -->

<svg
   width="800px"
   height="800px"
   viewBox="0 0 1024 1024"
   class="icon"
   version="1.1"
   id="svg3"
   sodipodi:docname="gas-costs-svgrepo-com.svg"
   inkscape:version="1.3.2 (091e20e, 2023-11-25)"
   xmlns:inkscape="http://www.inkscape.org/namespaces/inkscape"
   xmlns:sodipodi="http://sodipodi.sourceforge.net/DTD/sodipodi-0.dtd"
   xmlns="http://www.w3.org/2000/svg"
   xmlns:svg="http://www.w3.org/2000/svg">
  <defs
     id="defs3" />
  <sodipodi:namedview
     id="namedview3"
     pagecolor="#ffffff"
     bordercolor="#000000"
     borderopacity="0.25"
     inkscape:showpageshadow="2"
     inkscape:pageopacity="0.0"
     inkscape:pagecheckerboard="0"
     inkscape:deskcolor="#d1d1d1"
     inkscape:zoom="0.295"
     inkscape:cx="398.30508"
     inkscape:cy="400"
     inkscape:window-width="1312"
     inkscape:window-height="449"
     inkscape:window-x="0"
     inkscape:window-y="25"
     inkscape:window-maximized="0"
     inkscape:current-layer="svg3" />
  <path
     d="M512 512m-480 0a480 480 0 1 0 960 0 480 480 0 1 0-960 0Z"
     fill="#FEE8EB"
     id="path1" />
  <path
     d="M601.6 473.6c-57.6-64-57.6-140.8-57.6-249.6-179.2 70.4-134.4 262.4-140.8 326.4-44.8-38.4-57.6-128-57.6-128C294.4 448 268.8 512 268.8 563.2c0 128 108.8 236.8 243.2 236.8s243.2-102.4 243.2-236.8c0-76.8-57.6-115.2-57.6-217.6-83.2 25.6-96 89.6-96 128z"
     fill="#FF6B6A"
     id="path2" />
</svg>
