<?xml version="1.0" encoding="UTF-8" standalone="no"?>
<!-- Uploaded to: SVG Repo, www.svgrepo.com, Generator: SVG Repo Mixer Tools -->

<svg
   width="800px"
   height="800px"
   viewBox="0 0 1024 1024"
   class="icon"
   version="1.1"
   id="svg3"
   sodipodi:docname="hydropower-coal-svgrepo-com.svg"
   inkscape:version="1.3.2 (091e20e, 2023-11-25)"
   xmlns:inkscape="http://www.inkscape.org/namespaces/inkscape"
   xmlns:sodipodi="http://sodipodi.sourceforge.net/DTD/sodipodi-0.dtd"
   xmlns="http://www.w3.org/2000/svg"
   xmlns:svg="http://www.w3.org/2000/svg">
  <defs
     id="defs3" />
  <sodipodi:namedview
     id="namedview3"
     pagecolor="#ffffff"
     bordercolor="#000000"
     borderopacity="0.25"
     inkscape:showpageshadow="2"
     inkscape:pageopacity="0.0"
     inkscape:pagecheckerboard="0"
     inkscape:deskcolor="#d1d1d1"
     inkscape:zoom="0.41356139"
     inkscape:cx="54.405465"
     inkscape:cy="502.9483"
     inkscape:window-width="1312"
     inkscape:window-height="449"
     inkscape:window-x="0"
     inkscape:window-y="25"
     inkscape:window-maximized="0"
     inkscape:current-layer="svg3" />
  <path
     d="M512 512m-480 0a480 480 0 1 0 960 0 480 480 0 1 0-960 0Z"
     fill="#DEFCF9"
     id="path1"
     style="fill:#18dfb7;fill-opacity:1" />
  <path
     d="m 767.41712,467.36242 -292.0479,365.05985 c -14.60239,14.6024 -29.20479,0 -29.20479,-14.6024 l 29.20479,-189.83111 c 0,-14.60239 0,-14.60239 -14.60239,-14.60239 H 241.73091 c -25.9447,1.01726 -14.02959,-13.73904 0,-29.20479 L 548.3812,204.51931 c 14.60239,-14.60239 29.20479,0 29.20479,14.6024 l -58.40958,204.43353 c 0,14.60239 14.60239,14.60239 29.20479,14.60239 h 219.03592 c 14.6024,0 20.58435,1.89077 0,29.20479 z"
     fill="#ffffff"
     id="path3"
     style="stroke-width:2.28162"
     sodipodi:nodetypes="ccccscccccssc" />
</svg>
